M48
;Layer_Color=9474304
;FILE_FORMAT=2:4
INCH,TZ
;TYPE=PLATED
T1F00S00C0.0118
T2F00S00C0.0197
T3F00S00C0.0300
T4F00S00C0.0315
T5F00S00C0.0350
T6F00S00C0.0394
T7F00S00C0.0402
T8F00S00C0.0433
T9F00S00C0.0472
T10F00S00C0.0512
T11F00S00C0.0790
T12F00S00C0.1732
;TYPE=NON_PLATED
%
T01
X48744Y6720
X49750Y7031
X51100Y6524
X46826Y6720
X46667Y6189
X47042Y5933
X47212Y5475
X47000Y4915
X46549Y4750
X46084
X45584
X45084
X44669Y4915
X44500Y5500
X44584Y6012
X44965Y6189
X45344
X45949
X45985Y6720
X44965Y7031
X42815Y7067
X13508Y14700
X12833
X12190
X11607
X11163
X10789Y14915
Y14408
Y13750
Y13223
Y12685
X9709Y13500
X10161Y14065
X10339Y14717
X9925
X9400Y14700
X8836
X8300
X9400Y15286
X8836Y15993
X8200Y16776
X10789Y15993
X12448Y15624
X12168Y13500
X11607Y13988
X11071Y18335
X13100Y17605
X12743Y20359
X14103Y19914
X14159Y21815
X13563Y21357
X13500Y22293
Y23012
X10933Y22391
Y21606
X11262Y21612
X11265Y20953
X10957Y21020
X8974Y22322
X8089Y22776
X7268Y22744
X7269Y20954
X5506Y23125
X4750Y23114
X15600Y20600
X16036Y18097
X16238Y17742
X18451Y17960
X18549Y15750
X18116
X18000Y14500
X18684Y14112
X19050Y13750
X20185
X20316Y14112
X22500Y13613
X22036Y16587
X22052Y16875
X21723Y16868
X23250Y18250
X23306Y19879
X24200Y20400
X23250Y21283
Y21723
X23416Y22878
X23118Y23101
X22797
X21653Y23063
X19500Y22293
X19161Y22125
X18185Y23063
X17000Y22293
X16817Y19700
X21277Y20400
X26712Y20300
X26799Y19500
X26712Y18500
X26900Y17500
X28323Y16626
X30125
X30500Y16402
Y15992
X31180Y14382
X31883Y14368
X29161Y13220
X28752Y13256
X28771Y9004
X29161Y9250
X30288Y18250
X30500Y18500
X30933Y20717
X29799Y22033
X17818Y10000
X32433Y13000
X33490
X33750Y14750
X34500Y14500
X35780Y13839
X35750Y13000
X37182Y10616
X40800Y9500
X44000Y10173
X43500Y11093
X43250Y12303
X44203Y12882
X44500Y13416
X46000Y13687
X45949Y12197
X46358Y11260
X46650Y10616
X45831Y10173
X46000Y9344
X46549Y8197
X47358
X44063Y8114
X44618Y11750
X44916Y15546
X43200Y15563
X41717Y15957
X41705Y14416
X42742Y14000
X47358Y13142
X46937Y15384
X44628Y20872
Y21348
X44079
Y20872
X38510Y20865
Y21341
X37961Y21362
Y20886
X34694Y21052
Y21528
X34423Y21300
X32758Y18441
X32896Y18087
X34646Y16961
X34638Y16498
X49774Y15010
Y14024
X49278Y13142
X48657Y13750
X48577Y12323
X47850Y12000
X49256Y11774
X49278Y10500
X48456Y10776
X48490Y9494
X49250Y9250
X49124Y7638
X48430Y8197
X51100Y10776
Y13900
X49278Y20250
X31800Y23700
X31004Y23828
X30000Y23848
X29493
X28288Y24100
X27993Y23881
X26799Y24100
X26512Y23881
X27201Y24600
X25700
X25300Y24200
X24500Y24600
X26493Y25417
X28000Y25407
X29500Y25417
X31000
X31600Y26200
Y24600
X30201
X28712
X22351Y25341
X22036
Y25800
X22351Y25809
X22022Y26414
X23118Y26744
X23382Y26535
X22168Y29300
X22154Y29700
X21300
Y29300
X18049
Y29700
X17399
Y29300
X16315Y26900
X16334Y26112
X19648Y24779
X20466Y25180
X21764Y23714
X21778Y23393
X16224Y24937
X15981Y25341
X13993Y24854
X14270Y24528
X10521Y26750
X6400
X5506Y24118
Y23671
X5000Y29500
X500Y28860
Y26500
T02
X4250Y26000
X4182Y32000
T03
X3532Y6250
X5500
X7547Y17825
X1484
T04
X3250Y4500
X6250
T05
X45250Y5500
X46250
T06
X2000Y21500
Y24650
T07
X17750Y27388
X18750
Y28388
X17750
X19750
X20750
Y27388
X21750
Y28388
X19750Y27388
X26500
X27500
Y28388
X26500
X28500
X29500
Y27388
X30500
Y28388
X28500Y27388
T08
X9289Y21810
Y22810
X10289
Y21810
X18500Y13000
X19500
X20500
X21500
X10289Y23810
X9289
T09
X17063Y5500
X14000
X12563
X9500
Y8500
X9563Y12500
X12563
X14063
X14000Y8500
X17063Y12500
T10
X32500Y2000
X34500
X35000Y5579
X32000Y6579
X30500Y5579
Y2000
X28500
X26500
X24500
X22500
X20500
X18000
X18549Y6579
X21549Y5579
X23000Y6579
X26000Y5579
X27500Y6579
X16000Y2000
X14000
X12000
X10000
X8000
X6000
X4000
X18549Y11579
X21549
X23000
X26000
X27500
X30500
X32000
X35000
X48000Y30750
X46000
X44000
X42000
X40000
X38000
X36000
X34000
X14250
X12250
X10250
X8250
X6250
X4250
T11
X43250Y3500
X47250
T12
X50500Y1500
X1500
X50500Y31000
X1500
M30
